<svg xmlns="http://www.w3.org/2000/svg" viewBox="0 0 544.82 387.78"><defs><style>.cls-1{fill:#384fa2;}.cls-1,.cls-18,.cls-20,.cls-24,.cls-27,.cls-29,.cls-3,.cls-30,.cls-31,.cls-4{stroke:#231f20;}.cls-1,.cls-10,.cls-11,.cls-12,.cls-13,.cls-15,.cls-16,.cls-17,.cls-18,.cls-19,.cls-2,.cls-20,.cls-22,.cls-24,.cls-25,.cls-26,.cls-27,.cls-29,.cls-3,.cls-30,.cls-31,.cls-32,.cls-33,.cls-34,.cls-35,.cls-36,.cls-37,.cls-4,.cls-5,.cls-6,.cls-8,.cls-9{stroke-miterlimit:10;}.cls-2{fill:#272828;}.cls-12,.cls-13,.cls-15,.cls-16,.cls-17,.cls-2{stroke:#0e1b1b;}.cls-28,.cls-3{fill:#f4bb88;}.cls-4{fill:#fff;}.cls-10,.cls-11,.cls-13,.cls-15,.cls-16,.cls-17,.cls-19,.cls-22,.cls-25,.cls-34,.cls-35,.cls-5,.cls-6,.cls-8,.cls-9{fill:none;}.cls-11,.cls-5,.cls-6,.cls-8{stroke:#0e1b1c;}.cls-5{stroke-width:6px;}.cls-7{fill:#0e1b1c;}.cls-22,.cls-36,.cls-8{stroke-width:0.5px;}.cls-9{stroke:#e00a38;}.cls-10,.cls-9{stroke-width:8px;}.cls-10{stroke:#fc86a8;}.cls-11,.cls-15{stroke-width:2px;}.cls-12,.cls-24{fill:#231f20;}.cls-12,.cls-13,.cls-19,.cls-35{stroke-width:1.5px;}.cls-14{fill:#0e1b1b;}.cls-16{stroke-width:4px;}.cls-17{stroke-width:5px;}.cls-18{fill:#a33522;}.cls-19,.cls-22{stroke:#221a19;}.cls-20{fill:#a3341a;}.cls-21{fill:#fcf9eb;}.cls-23{fill:#ce5652;}.cls-25{stroke:#969696;stroke-width:0.75px;}.cls-26{fill:#4f3922;stroke:#0f0f0f;}.cls-27{fill:#eebb94;}.cls-29{fill:#3252a4;}.cls-30{fill:#2c2c2d;}.cls-31{fill:#fbb68c;}.cls-32{fill:#fdb686;}.cls-32,.cls-34,.cls-35,.cls-36,.cls-37{stroke:#211a19;}.cls-33{fill:#1a1210;stroke:#1a1210;}.cls-36,.cls-37{fill:#fcf9ec;}.cls-37{stroke-width:0.25px;}</style></defs><title>Logo</title><g id="C_Jambe_arrière" data-name="C Jambe arrière"><path class="cls-1" d="M153.7,456S173,500.7,173,505.22s-7.37,73.63-6.36,82.11H154.88s-4.22-73.07-1.18-74.48c0,0-23.32-50-26.87-54l5.07-6.79Z" transform="translate(-8.69 -255.87)"/><path class="cls-2" d="M151.86,590s-5.56,9.29-3,12.33,31.74,14.15,41.9,9.7c0,0,2-3.78-1.2-6.32s-19.25-14.44-19.62-15.28S156.46,599.82,151.86,590Z" transform="translate(-8.69 -255.87)"/><path class="cls-2" d="M169.78,599.88s2.83-7.42,5.34-5.25" transform="translate(-8.69 -255.87)"/><path class="cls-2" d="M173.61,602.28s3.48-6.16,5.21-4.69" transform="translate(-8.69 -255.87)"/><path class="cls-2" d="M178.82,603.78s2.42-4.41,3.33-3.9" transform="translate(-8.69 -255.87)"/><path class="cls-3" d="M164.28,586.78l1.57,5.11s-8.95,5.09-13.13-.41l1.5-4.27s8.3,1.27,10.06-.43" transform="translate(-8.69 -255.87)"/></g><g id="G_Jambe_arrière" data-name="G Jambe arrière"><path class="cls-1" d="M333.3,452.12s21.72,49,20.31,55.25-9.3,65.74-9.3,65.74,4.57,3.68-.82,8.12-21.87-1.53-21.87-1.53-.89-8.87,3.55-9.5c0,0,.89-51.25,4.27-53.85,0,0-40-73.93-37.73-75.79h0a140.87,140.87,0,0,0,41.59,11.56" transform="translate(-8.69 -255.87)"/><path class="cls-3" d="M339.63,584.09l-1.84,15.36s-11.46,3-15.46-4.15c0,0,2.1-14.52,2.64-14.45S339.63,584.09,339.63,584.09Z" transform="translate(-8.69 -255.87)"/><path class="cls-4" d="M319.17,593.24s2.21,8.11,22.24,6.85c0,0,11.66,7.6,14.45,7.85,0,0,7.6,3.43,6.59,8.31,0,0-.31,5.18-4,4.39l-42.94-6.1S315.83,592.34,319.17,593.24Z" transform="translate(-8.69 -255.87)"/><path class="cls-4" d="M337.69,607s3.37-7.08,5.22-5.92" transform="translate(-8.69 -255.87)"/><path class="cls-4" d="M341.07,608.45s3.17-6.56,4.33-5.85" transform="translate(-8.69 -255.87)"/><path class="cls-4" d="M345.4,609.47s.67-4.12,2.23-5.53" transform="translate(-8.69 -255.87)"/><line class="cls-4" x1="306.95" y1="355.27" x2="353.42" y2="362.12"/><path class="cls-4" d="M319.53,594s-1.26,6.65-3,6.06" transform="translate(-8.69 -255.87)"/></g><g id="Roues"><circle class="cls-5" cx="475.16" cy="318.12" r="66.66"/><ellipse class="cls-5" cx="69.99" cy="316.06" rx="66.99" ry="65.81"/></g><g id="Rayons"><circle class="cls-6" cx="70.5" cy="315.79" r="57.18"/><circle class="cls-7" cx="69.89" cy="318.01" r="11.52"/><line class="cls-8" x1="69.89" y1="306.5" x2="33.44" y2="272.26"/><line class="cls-8" x1="43.07" y1="265.61" x2="62.17" y2="309.48"/><line class="cls-8" x1="75.15" y1="309.48" x2="52.62" y2="261.47"/><line class="cls-8" x1="63.88" y1="258.99" x2="65.4" y2="307.41"/><line class="cls-8" x1="77.61" y1="309.48" x2="75.15" y2="258.99"/><line class="cls-8" x1="86.06" y1="261.47" x2="68.28" y2="307.41"/><line class="cls-8" x1="96.32" y1="264.77" x2="79" y2="310.98"/><path class="cls-7" d="M121,532.68" transform="translate(-8.69 -255.87)"/><line class="cls-8" x1="125.08" y1="298.68" x2="79" y2="318.01"/><line class="cls-8" x1="112.31" y1="276.8" x2="72.72" y2="313.16"/><line class="cls-8" x1="127.51" y1="320.08" x2="76.38" y2="320.08"/><line class="cls-8" x1="127.68" y1="308.35" x2="75.15" y2="309.48"/><line class="cls-8" x1="125.08" y1="332.91" x2="76.38" y2="310.98"/><line class="cls-8" x1="121.85" y1="340.96" x2="70.5" y2="321.95"/><polyline class="cls-8" points="115.47 351.08 77.61 316.06 114.41 279.17"/><line class="cls-8" x1="108.68" y1="358.36" x2="72.72" y2="326.9"/><line class="cls-8" x1="98.89" y1="365.42" x2="79" y2="318.01"/><line class="cls-8" x1="88.95" y1="369.92" x2="68.28" y2="321.95"/><line class="cls-8" x1="77.17" y1="372.97" x2="77.17" y2="321.95"/><line class="cls-8" x1="68.28" y1="372.93" x2="65.4" y2="325.29"/><line class="cls-8" x1="55.24" y1="370.9" x2="72.72" y2="329.17"/><line class="cls-8" x1="44.85" y1="366.89" x2="62.17" y2="321.95"/><line class="cls-8" x1="33.44" y1="359.34" x2="69.89" y2="326.9"/><line class="cls-8" x1="26.93" y1="352.82" x2="62.17" y2="318.01"/><line class="cls-8" x1="20.26" y1="343.12" x2="72.72" y2="321.95"/><line class="cls-8" x1="15.92" y1="332.91" x2="65.4" y2="313.16"/><line class="cls-8" x1="13.65" y1="321.95" x2="63.98" y2="321.95"/><polyline class="cls-9" points="68.28 310.98 136.98 250.25 295.13 207.68"/><line class="cls-8" x1="15.92" y1="298.68" x2="63.98" y2="320.08"/><polyline class="cls-8" points="19.79 289.38 72.72 309.48 120.41 287.88"/><line class="cls-8" x1="26.59" y1="279.16" x2="63.98" y2="318.01"/><circle class="cls-6" cx="475.54" cy="317.04" r="57.69"/><circle class="cls-7" cx="475.54" cy="316.37" r="7.61"/><line class="cls-8" x1="467.93" y1="259.86" x2="469.82" y2="311.37"/><polyline class="cls-8" points="456.76 262.5 480.09 314.72 480.09 259.86"/><polyline class="cls-8" points="519.19 279.35 480.58 317.04 501.78 265.67"/><polyline class="cls-8" points="525.46 288.14 473.62 311.37 511.54 271.98"/><polyline class="cls-8" points="530.52 334.57 478.59 311.37 532.84 310.36"/><polyline class="cls-8" points="527.12 342.88 475.54 323.98 532.84 321.19"/><polyline class="cls-8" points="504.19 367.12 483.15 316.37 520.53 353.14"/><line class="cls-8" x1="494.36" y1="371.58" x2="469.82" y2="321.19"/><line class="cls-8" x1="482.09" y1="374.36" x2="480.58" y2="317.04"/><line class="cls-8" x1="471.6" y1="374.36" x2="469.82" y2="318.12"/><polyline class="cls-8" points="459.97 372.59 480.09 321.19 530.52 299.53"/><polyline class="cls-8" points="450.18 367.12 469.81 314.72 491.35 261.57"/><polyline class="cls-8" points="439.32 361.94 475.54 323.98 513.18 360.74"/><line class="cls-8" x1="431.7" y1="354.52" x2="467.93" y2="316.37"/><line class="cls-8" x1="425.48" y1="345.7" x2="473.62" y2="323.72"/><line class="cls-8" x1="469.82" y1="314.72" x2="420.62" y2="334.71"/><line class="cls-8" x1="418.25" y1="323.72" x2="480.09" y2="321.19"/><line class="cls-8" x1="417.85" y1="311.37" x2="473.62" y2="311.37"/><line class="cls-8" x1="420.04" y1="301.32" x2="471.6" y2="321.53"/><line class="cls-8" x1="424.57" y1="290.01" x2="476.25" y2="314.34"/><line class="cls-8" x1="431.7" y1="281.18" x2="475.54" y2="323.98"/><line class="cls-8" x1="439.32" y1="272.15" x2="478.59" y2="311.37"/><polyline class="cls-9" points="124.65 209.92 157.96 318.13 159.07 321.3"/><line class="cls-9" x1="74.31" y1="317.72" x2="157.86" y2="328.37"/><line class="cls-10" x1="163.04" y1="328.66" x2="327.02" y2="329.02"/><line class="cls-9" x1="177.71" y1="328.11" x2="341.68" y2="328.47"/><line class="cls-11" x1="299.28" y1="345.49" x2="303.68" y2="345.49"/><line class="cls-11" x1="305.9" y1="345.55" x2="310.08" y2="345.55"/><line class="cls-11" x1="312.97" y1="345.55" x2="316.81" y2="345.55"/><line class="cls-11" x1="320.58" y1="345.55" x2="324.63" y2="345.55"/><line class="cls-11" x1="330.33" y1="345.55" x2="334.59" y2="345.49"/><line class="cls-11" x1="337.42" y1="345.55" x2="341.06" y2="345.55"/></g><g id="Structure_tandem" data-name="Structure tandem"><circle class="cls-12" cx="160.42" cy="328.29" r="3.16"/><circle class="cls-13" cx="160.42" cy="328.29" r="6.01"/><circle class="cls-13" cx="160.42" cy="329.17" r="9.64"/><circle class="cls-13" cx="160.42" cy="328.29" r="14.16"/><circle class="cls-13" cx="160.42" cy="328.29" r="18.2"/><path class="cls-14" d="M71.26,582.78s11,8.31,10.15,14.05c0,0-3.53,11.1-8.84,11.86a10.13,10.13,0,0,0,11.27,6.52,16.29,16.29,0,0,0,1.23-1.92c1.27-2.3,2.56-6-1.23-7.38,0,0,8.69-15.4,2-21.75S71.26,582.78,71.26,582.78Z" transform="translate(-8.69 -255.87)"/><path class="cls-15" d="M91.11,613.36l-6-.07" transform="translate(-8.69 -255.87)"/><line class="cls-15" x1="83.56" y1="357.42" x2="88.95" y2="356.67"/><line class="cls-15" x1="90.7" y1="355.87" x2="94.88" y2="355.87"/><line class="cls-15" x1="97.51" y1="355.06" x2="101.94" y2="355.06"/><line class="cls-15" x1="103.97" y1="354.24" x2="108.68" y2="353.71"/><line class="cls-15" x1="109.9" y1="353.71" x2="113.3" y2="353.71"/><line class="cls-15" x1="132.4" y1="351.08" x2="134.96" y2="351.08"/><line class="cls-15" x1="140.88" y1="350.03" x2="136.98" y2="350.03"/><line class="cls-15" x1="181.03" y1="345.49" x2="185.61" y2="345.49"/><line class="cls-15" x1="188.17" y1="345.49" x2="192.34" y2="345.49"/><line class="cls-15" x1="194.9" y1="345.49" x2="198.67" y2="345.49"/><line class="cls-15" x1="201.23" y1="345.49" x2="205.41" y2="345.49"/><line class="cls-15" x1="207.7" y1="345.49" x2="212.14" y2="345.49"/><line class="cls-15" x1="214.17" y1="345.49" x2="218.34" y2="345.49"/><line class="cls-15" x1="220.9" y1="345.49" x2="225.08" y2="345.49"/><line class="cls-15" x1="227.23" y1="345.49" x2="231.54" y2="345.49"/><line class="cls-15" x1="233.56" y1="345.49" x2="238.28" y2="345.49"/><line class="cls-15" x1="240.57" y1="345.49" x2="245.01" y2="345.49"/><line class="cls-15" x1="246.63" y1="345.49" x2="251.48" y2="345.49"/><line class="cls-15" x1="253.5" y1="345.49" x2="257.95" y2="345.49"/><line class="cls-15" x1="259.7" y1="345.49" x2="264.41" y2="345.49"/><line class="cls-15" x1="266.57" y1="345.49" x2="270.74" y2="345.49"/><line class="cls-15" x1="272.76" y1="345.49" x2="277.48" y2="345.49"/><line class="cls-15" x1="279.5" y1="345.49" x2="284.08" y2="345.49"/><line class="cls-15" x1="286.37" y1="345.49" x2="290.41" y2="345.49"/><line class="cls-15" x1="292.57" y1="345.49" x2="297.68" y2="345.49"/><polygon class="cls-14" points="140.21 353.17 158.26 360.18 160.42 355.06 153.28 351.08 155.3 346.49 150.78 344.42 148.83 349.11 142.22 347.46 140.21 353.17"/><polyline class="cls-9" points="164.73 320.2 295.17 203.76 436.23 200.11 346.72 323.2"/><line class="cls-9" x1="252.29" y1="218.85" x2="240.27" y2="178.21"/><path class="cls-14" d="M137.31,454.63s-2.43,6.07-3.91,5.12a17.83,17.83,0,0,1-5.79-2.51h-5.52s-3.37-6.78-10-6.38c0,0-8.62-4.44-7.28-9.16,0,0,11.32-.27,14.82.81Z" transform="translate(-8.69 -255.87)"/><path class="cls-14" d="M133.54,454.27s-15.89-2.56-23.3-10.11l17.65,12.13" transform="translate(-8.69 -255.87)"/><polyline class="cls-16" points="220.23 185.8 224.58 178.56 254.28 177.55"/><line class="cls-15" x1="80.39" y1="313.28" x2="82.42" y2="313.16"/><line class="cls-15" x1="83.73" y1="313.28" x2="88.48" y2="313.28"/><line class="cls-15" x1="90.7" y1="313.1" x2="95.35" y2="313.28"/><line class="cls-15" x1="97.07" y1="312.56" x2="101.94" y2="312.56"/><line class="cls-15" x1="103.97" y1="312.56" x2="108.68" y2="312.56"/><line class="cls-15" x1="110.41" y1="312.56" x2="114.85" y2="312.56"/><line class="cls-15" x1="116.77" y1="312.56" x2="121.42" y2="312.56"/><line class="cls-15" x1="123.24" y1="312.05" x2="127.51" y2="312.05"/><line class="cls-15" x1="184.56" y1="308.52" x2="190.25" y2="308.52"/><line class="cls-15" x1="192.34" y1="308.52" x2="196.79" y2="308.52"/><line class="cls-15" x1="198.67" y1="308.52" x2="203.32" y2="308.52"/><line class="cls-15" x1="205.41" y1="308.52" x2="209.92" y2="308.52"/><line class="cls-15" x1="212.14" y1="308.52" x2="216.25" y2="308.52"/><line class="cls-15" x1="218.34" y1="308.52" x2="222.99" y2="308.52"/><line class="cls-15" x1="225.08" y1="308.52" x2="229.39" y2="308.52"/><line class="cls-15" x1="231.54" y1="308.52" x2="235.92" y2="308.52"/><line class="cls-15" x1="238.28" y1="308.52" x2="242.79" y2="308.52"/><line class="cls-15" x1="245.01" y1="308.52" x2="249.05" y2="308.52"/><line class="cls-15" x1="251.48" y1="308.52" x2="255.72" y2="308.52"/><line class="cls-15" x1="257.95" y1="308.52" x2="262.05" y2="308.52"/><line class="cls-15" x1="264.41" y1="308.52" x2="268.65" y2="308.52"/><line class="cls-15" x1="270.74" y1="308.52" x2="275.12" y2="308.52"/><line class="cls-15" x1="277.48" y1="308.52" x2="281.79" y2="308.52"/><line class="cls-15" x1="283.67" y1="308.52" x2="288.39" y2="308.52"/><line class="cls-15" x1="290.41" y1="308.52" x2="295.12" y2="308.52"/><line class="cls-15" x1="297.21" y1="308.52" x2="301.35" y2="308.52"/><line class="cls-15" x1="303.68" y1="308.52" x2="308.12" y2="308.52"/><line class="cls-9" x1="342.61" y1="323.82" x2="291.34" y2="208.09"/><ellipse class="cls-12" cx="345.06" cy="327.04" rx="3.29" ry="3.22"/><ellipse class="cls-13" cx="345.06" cy="327.04" rx="6.26" ry="6.12"/><ellipse class="cls-13" cx="345.06" cy="327.93" rx="10.03" ry="9.81"/><ellipse class="cls-13" cx="345.06" cy="327.04" rx="14.73" ry="14.4"/><ellipse class="cls-13" cx="345.06" cy="327.04" rx="18.94" ry="18.52"/><line class="cls-17" x1="345.06" y1="308.52" x2="346.72" y2="287.84"/><line class="cls-17" x1="337.56" y1="286.49" x2="355.1" y2="289.46"/><line class="cls-16" x1="312.97" y1="361.12" x2="332.44" y2="364.89"/><line class="cls-9" x1="472.97" y1="314.34" x2="434.27" y2="202.41"/><path class="cls-7" d="M295.24,462.08l-3.55-13.88s-.27-2.42-7.68-2.56L277.68,440s-3.5-.41-4.58-1.08c0,0-11.45-6.87-6.4-8.89,0,0,10.3,1.48,13.4.81a51.12,51.12,0,0,0,18.33,9.43s2.83,14.61,4,15.72S295.24,462.08,295.24,462.08Z" transform="translate(-8.69 -255.87)"/><path class="cls-14" d="M434.21,452.45,432.6,447s-6.87.2-1.42-3.43L430,436.48l3-1.21,2.22,4.45s18.59-11.52,37.18-2.63a24.1,24.1,0,0,1,5.17,9.35c1.8,7-.72,16.3-22.14,21.36L455,464s24.25-7.28,16.37-20.21c0,0-5.66-9.9-25.46,3.43,0,0-1.63,3-1,5.06Z" transform="translate(-8.69 -255.87)"/><path class="cls-14" d="M477.57,446.44c-.41-2.45,6.66-5.51,6.66-5.51s1.51-1,2.11,4.45c0,0-.8,11.07,1.62,12.91,0,0,2.43-22.61-2-20.59,0,0,.53-6.67-4.28-7.08,0,0,2.34,6.66-7.9,8.13" transform="translate(-8.69 -255.87)"/><line class="cls-17" x1="165.57" y1="310.98" x2="168.8" y2="298.68"/><line class="cls-17" x1="162.24" y1="295.56" x2="178.62" y2="299.5"/><path class="cls-2" d="M183.26,535.59" transform="translate(-8.69 -255.87)"/><path class="cls-2" d="M177.34,541.35" transform="translate(-8.69 -255.87)"/><line class="cls-15" x1="129.08" y1="312.05" x2="133.68" y2="312.05"/><line class="cls-15" x1="140.88" y1="310.98" x2="146.26" y2="310.57"/><path class="cls-15" d="M159,565.36" transform="translate(-8.69 -255.87)"/><line class="cls-15" x1="148.69" y1="310.09" x2="152.41" y2="309.48"/><line class="cls-15" x1="157.86" y1="308.35" x2="162.24" y2="308.35"/><line class="cls-15" x1="168.8" y1="308.35" x2="171.61" y2="308.35"/><line class="cls-15" x1="181.03" y1="308.91" x2="182.66" y2="308.91"/><line class="cls-15" x1="310.08" y1="308.52" x2="313.56" y2="308.52"/><line class="cls-15" x1="316.81" y1="308.52" x2="320.58" y2="308.52"/><line class="cls-15" x1="323.58" y1="308.52" x2="327.02" y2="308.52"/><line class="cls-15" x1="177.71" y1="345.49" x2="172.49" y2="345.49"/><line class="cls-15" x1="168.65" y1="345.49" x2="163.58" y2="345.49"/><line class="cls-15" x1="160.05" y1="345.49" x2="154.47" y2="345.49"/><line class="cls-15" x1="145.48" y1="347.28" x2="149.92" y2="346.49"/><line class="cls-15" x1="115.47" y1="353.71" x2="118.44" y2="353.71"/><line class="cls-15" x1="120.72" y1="353.37" x2="123.85" y2="353.37"/><line class="cls-15" x1="127.68" y1="352.86" x2="130.94" y2="351.76"/></g><g id="Tête_Constance" data-name="Tête Constance"><path class="cls-18" d="M188.67,316.24l10.68,7c-.27.48.89,17.55-1,20.78s.45,23.37.45,23.37a.64.64,0,0,1-1,.22c-.66-.51-5,.69-5.58.19s-3.51-9.24-3.51-9.24c.75,2.82-3.11,10.25-3.11,10.25-8.49-6.84-6.25-11-6.25-11-.15,2.18-2.32,9.42-3,9s-2.12-9.92-2.12-9.92c-.23,2.55-.57,12.27-.57,12.27s.39,1.23,0-.73-3.42-9.35-3.42-9.35a43.38,43.38,0,0,1-1.55,6.4c-.89-1.37-2.65-7.27-2.65-7.27-.18,3-4.14,8.27-4.14,8.27-1.52-2.85-2.34-9-2.34-9,.46,1.6-1.08,10.19-1.08,10.19-.88-1.73-1.83-9.06-1.83-9.06.79,1.73-2.83,6.73-2.83,6.73-2.86-3.14-2.78-8.37-2.78-8.37.63,1.61.67,13.53.67,13.53s3.22,2.54,0,.61-3.21-16.42-3.21-16.42c-1.22,4-5.76,14.19-5.76,14.19,3.08-4.16-1.37-26.45-1.37-26.45-2.35-.44-5.4-3.09-5.4-3.09s-.65-14.26,2.41-20.24l4.39-10.45s39.54,24.16,45.64,5.13h0l.25,2.39" transform="translate(-8.69 -255.87)"/><path class="cls-3" d="M149,319.68A26.36,26.36,0,0,0,163.33,332l-1.9,5.25s7.65,3.22,6.89,3.2l1-8.18s12.34-.21,18.43-16.59c0,0,3.17-33.69-9.41-28.59,0,0-12.23-8.76-16.91-5C161.46,282.06,137.62,311.94,149,319.68Z" transform="translate(-8.69 -255.87)"/><path class="cls-19" d="M167.86,309.65a20.65,20.65,0,0,1-.53,3.3s-2.3,3.27-2.14,3.82c0,0,1.13,1.66,2.4,1.61" transform="translate(-8.69 -255.87)"/><path class="cls-19" d="M152,304.92a9.36,9.36,0,0,1,7.13-1" transform="translate(-8.69 -255.87)"/><path class="cls-19" d="M175.64,304.14s5.85-.8,7.4,1" transform="translate(-8.69 -255.87)"/><path class="cls-20" d="M152.69,276.33s5.43-16.94,22.9-2.7a42.22,42.22,0,0,0,8.08-1.82s5.94-.63,7.29,4.64a12.42,12.42,0,0,0,2.24,9.44s9.51,4,9.68,6.61a36.23,36.23,0,0,1-1.15,9.6c-.55,1.43-1.69,10.85-.11,14.32,0,0,3.23,10.28-3.61,12.77,0,0-5.37-14.76-4.2-17.07s-5-25.29-7.91-25c0,0-17.91-8.31-18.65-6.08s-18.81,6.8-19.2,8.68-5.52,14.24-4.76,17.06c0,0-2.41,9.38-1.89,11.83s3.52,8.94,3.52,8.94,1.39,12.2-1.64,14.45c0,0-1.35-13.56-3.78-17,0,0-3.3-2.35-5.41-2.6,0,0-2.72-2.84.87-11.32s5.35-8.93,1.7-13.91c0,0-5.59-7.56-1.65-11.94,0,0,3.91-6.37,10-6.54S152.69,276.33,152.69,276.33Z" transform="translate(-8.69 -255.87)"/><path class="cls-20" d="M145.55,358s2.9-6.19-1.37-15.71a17.83,17.83,0,0,1,3.93-12.15s2.24-6.6-.48-16.95c0,0-2.77-8.56,6.79-11.86,0,0,6.72-3.94,5.93-11.17,0,0,3.38-8.18,9-4.22,0,0,4.69,3,5.63,5.4,0,0,6.73-4.47,9.4,1.74,0,0,3.3,2.63,2.33,17.46,0,0,.82,6.06,3.47,7.95,0,0,4,8.05,1,16.69,0,0-1.5,4.91,1.59,14,0,0,1.61,4.37,1.43,6.71,0,0,3.54-.61,4.5-12.56,0,0,.22-4.23-1.29-7.16,0,0-1.95-10.06.25-17.2,0,0,1.54-10.31-.37-16.77,0,0-1.92-6.18-6.24-8.57,0,0-2.69-3-2.2-10.61,0,0,1-6.55-3.11-8.75a9.85,9.85,0,0,0-10.36,1.93s-2.74-7.2-12.17-8.13c0,0-5.89,1.8-8.23,12,0,0,.36,1.72-8.5,4.14,0,0-8.24,4.07-8,15.34a25.76,25.76,0,0,0,2,10.06s3.42,6.59,1.55,12.48c0,0-7.6,19.4-5,23.62a4.2,4.2,0,0,0,2.94,1.72S145.36,353.12,145.55,358Z" transform="translate(-8.69 -255.87)"/><path class="cls-19" d="M175.65,310.88s2.21-9.63,5.44.18l1.59-2.05" transform="translate(-8.69 -255.87)"/><line class="cls-19" x1="174.43" y1="55.25" x2="172.4" y2="55.18"/><path class="cls-19" d="M160,310.39s-2.39-9.87-4.6-.14l-2.42-2.17" transform="translate(-8.69 -255.87)"/><line class="cls-19" x1="144.17" y1="54.77" x2="146.67" y2="54.37"/><polygon class="cls-21" points="152.9 68.19 166.14 68.86 167.07 66.65 152.26 66.35 152.9 68.19"/><path class="cls-22" d="M160.85,322.1s1.34,6.48,8,6.31a7.92,7.92,0,0,0,6.78-5.89Z" transform="translate(-8.69 -255.87)"/><path class="cls-23" d="M161.84,324.08l12.8.66s-1.24,3.12-5.69,3.59A7.57,7.57,0,0,1,161.84,324.08Z" transform="translate(-8.69 -255.87)"/></g><g id="Corps_Constance" data-name="Corps Constance"><path class="cls-1" d="M123.37,421.19s-17.61,11.26-.91,29c0,0,32.66,20.23,55.94,25,0,0,3.12.48.72,4.08,0,0-7.84,7.49-10.21,22.25,0,0-6.18,19.21-8.78,29.15,0,0,8,4.06,15.61-.14l9-24.58s16.58-20,18.81-26.64a5.55,5.55,0,0,0,.18-.66c1.2-5.84,2.79-13.23-3.18-17.14l-48.94-27.3S130.93,427.85,123.37,421.19Z" transform="translate(-8.69 -255.87)"/><path class="cls-24" d="M128.38,414.88l-5.49,5.41s20.58,15.1,29.82,11.46l.19-5.95S136,425.9,128.38,414.88Z" transform="translate(-8.69 -255.87)"/><path class="cls-25" d="M146.4,426.61s-.59,4.83-.16,5.38,6.47-.24,6.47-.24.89-3.91.16-4.94S147.69,426,146.4,426.61Z" transform="translate(-8.69 -255.87)"/><line class="cls-25" x1="139.64" y1="173.96" x2="144.08" y2="174.1"/><path class="cls-26" d="M127.72,413.09s9.46-16.86,15.05-43.93c0,0,2.56-27.27,16.4-33.89,0,0,11.34-1.07,15.19,6.65,0,0,5,15.89,7.29,20.07,0,0,3.45,13.84-3,20.16,0,0-16.14,9.57-27.54,43.55C151.1,425.7,129.63,423.45,127.72,413.09Z" transform="translate(-8.69 -255.87)"/><path class="cls-27" d="M180.8,379.11s32,48.11,43.82,51.87a15.4,15.4,0,0,0,9.85-.74s6.66.73,4.9,8a1.69,1.69,0,0,0,3-.22s.57-5.49-.6-8l1,8s1.83.54,1.86-1.25.09-7.6-2.48-9.88c0,0,2.73,1.07,3.5,9.12,0,0,6.94-2.06-2.7-11.74,0,0-9.71-.63-11.33.85,0,0-1.42,1-8.2-4.67s-41.89-53-41.57-56.87C181.85,363.66,184.18,373,180.8,379.11Z" transform="translate(-8.69 -255.87)"/><ellipse class="cls-28" cx="162.5" cy="354.54" rx="13.01" ry="7.84" transform="translate(-205.64 249.97) rotate(-88.2)"/><path class="cls-3" d="M113.7,319.94c.09.57,43.62,35.08,43.62,35.08s13.76,8.92,9.91-10.09l-41.53-28L115,278.64s10.32-7.31,10.67-8.74c0,0,.18-3.46-10.44,3.43,0,0,5.65-15.44,4.47-16.63,0,0-5.27,3.59-6.84,14.82,0,0-.46-14.47-2-15.1,0,0-2.77,1.36-1.67,14.69,0,0-2.52-12.22-4-11.68,0,0-1.51,2.26,1.22,12.18,0,0-8-5.46-8.38-4,0,0,9.65,11.87,10.53,12.77Z" transform="translate(-8.69 -255.87)"/><path class="cls-2" d="M159.42,531.48s-5.55,9.3-3,12.34,31.74,14.15,41.9,9.69c0,0,2.05-3.77-1.2-6.31s-19.25-14.44-19.62-15.28S164,541.28,159.42,531.48Z" transform="translate(-8.69 -255.87)"/><path class="cls-2" d="M177.34,541.35s2.84-7.42,5.35-5.25" transform="translate(-8.69 -255.87)"/><path class="cls-2" d="M181.18,543.75s3.48-6.17,5.21-4.7" transform="translate(-8.69 -255.87)"/><path class="cls-2" d="M186.39,545.25s2.42-4.42,3.33-3.9" transform="translate(-8.69 -255.87)"/><path class="cls-3" d="M173.42,531.54v1.81s-8.95,5.1-13.13-.41l1-1.51s10.87,2.19,12.15.11" transform="translate(-8.69 -255.87)"/></g><g id="Corps_Guillaume" data-name="Corps Guillaume"><path class="cls-29" d="M291.58,397.13s-15.85,12.47-11.48,33.7c0,0,6.32,19.15,81.41,24.24,0,0-9.76,38.39-9.43,43.47,0,0-2.57,0-2.7,1.56l-.38,3.17s-.38,3.55,2.54,3.93l1.59.17,18.31,2s4.18-2.79.76-7.86c0,0,11.66-42.34,13.69-43.52,0,0,6.08-16.83-7.44-25.65,0,0-51-13.88-52.39-17.44,0,0-.34-3.05.5-4.23l-35-13.52" transform="translate(-8.69 -255.87)"/><path class="cls-3" d="M368.39,509.33l-1.84,15.36s-11.46,3-15.45-4.15c0,0,2-13.24,2.51-13.17Z" transform="translate(-8.69 -255.87)"/><path class="cls-4" d="M347.93,518.48s2.21,8.11,22.24,6.84c0,0,11.66,7.61,14.45,7.86,0,0,7.61,3.43,6.59,8.31,0,0-.31,5.18-4,4.39l-42.94-6.11S344.59,517.58,347.93,518.48Z" transform="translate(-8.69 -255.87)"/><path class="cls-4" d="M366.45,532.21s3.37-7.08,5.22-5.92" transform="translate(-8.69 -255.87)"/><path class="cls-4" d="M369.83,533.69s3.17-6.56,4.33-5.85" transform="translate(-8.69 -255.87)"/><path class="cls-4" d="M374.16,534.7s.68-4.11,2.23-5.52" transform="translate(-8.69 -255.87)"/><line class="cls-4" x1="335.71" y1="280.51" x2="382.18" y2="287.36"/><path class="cls-4" d="M348.3,519.27s-1.26,6.65-3.05,6.05" transform="translate(-8.69 -255.87)"/><path class="cls-4" d="M326.06,414.88" transform="translate(-8.69 -255.87)"/><path class="cls-30" d="M356.12,333.29S333.49,349.46,323.69,362c0,0-40.9,39.89-41.58,42.59s48.34,10.32,48.34,10.32S346.2,396.23,348.3,396s21-13.58,23.7-16.54,11.88,12.93,11.88,12.93l13.65-11.49S376.37,351.21,372,349.33s-12.66-17.72-12.66-17.72Z" transform="translate(-8.69 -255.87)"/><path class="cls-31" d="M395.52,382.59s18.25,24.09,20.54,28.65,14.45,25.1,16.73,25.61c0,0,4.31,5.07,6.59,4.81s8.62,7.35,2.28,12.93-6.08,2.62-6.84-1.35-3.05-6.51-5.07-5.24-5.58-6.08-5.83-7.35S414.79,427,412,425.94s-28.12-33.55-28.12-33.55Z" transform="translate(-8.69 -255.87)"/><path class="cls-31" d="M444.4,433.55s13,1.27,10.19,11.41c0,0-2.95,5.07-4.9,4.05a5.88,5.88,0,0,1-2.7-4.81c0-1.27-3.9.45-3.9.45l-4.22-5.57-16.26-16.45s-7.52-13.1-8.47-14.51-18.62-25.53-18.62-25.53l1.44-1.21s5.66,7.13,6.84,7.8,22.31,24.28,23.33,26.08S444.4,433.55,444.4,433.55Z" transform="translate(-8.69 -255.87)"/><path class="cls-31" d="M447.41,440.56s3,4.83.93,7.32" transform="translate(-8.69 -255.87)"/><path class="cls-31" d="M435.15,446.06s3.47,5.15,3.13,10.48" transform="translate(-8.69 -255.87)"/><path class="cls-31" d="M437.27,445.13a14.38,14.38,0,0,1,3.34,10.36" transform="translate(-8.69 -255.87)"/><path class="cls-31" d="M439.55,445.13s3,1.71,3.59,7.83" transform="translate(-8.69 -255.87)"/><path class="cls-31" d="M449.46,440s2.58,2.16,2.11,8.59" transform="translate(-8.69 -255.87)"/><path class="cls-31" d="M451.63,439.44s1.82,1.44,2.55,6.17" transform="translate(-8.69 -255.87)"/></g><g id="Tête_Guillaume" data-name="Tête Guillaume"><path class="cls-32" d="M394.65,306.11c-3.31,18.26-5.82,19.23-5.82,19.23-.53,3.21-17.45,11.39-17.45,11.39l-1.64-.69c-3.7-1.6-12.61-5.62-15.31-8.47-3.44-3.62-5.68-9.62-7.67-18.68l.66.56v-5.57s1.9-5,2.38-5.3,3.84-1.54,6.31-10.27h0l21.65-5.76,14.9,8.18,2,15.38" transform="translate(-8.69 -255.87)"/><path class="cls-32" d="M347.46,311.91c-4.46-1.16-3.34,2.56-3.34,2.56s.77,5.77,4.42,1.42" transform="translate(-8.69 -255.87)"/><path class="cls-32" d="M393.79,310.55c3.51-1.69,3.24,2.53,3.24,2.53s-.28,5-4.37,2.51" transform="translate(-8.69 -255.87)"/><path class="cls-33" d="M347.42,303.88v5.57s-2.4-1.11-2.52-.56-4.89-7.66-4.22-8.64l.91,1s1-10,2.4-9.76-3.38-2.93-3.38-2.93,12.5-10.59,12.63-11l.13-.42s2,.42,2.78-2.09-.13-3.48-.92-4,1.72-1.54,2.64-.7,3.57,2.23,4.1,1.81-1.72-4.32-.79-4.74a4.82,4.82,0,0,1,2.51,0s1.59-1.81-2.64-3.9,13.36,2.79,13.36,2.79,5.55,4.46,5.82,7.25c0,0,.13,1,4.1-1.68,0,0,1.72-.27,1.19,2.51,0,0,6.2.28,7.14,1.82,0,0,2.52,1.25,2,2.23s-2-.42-2,.69,2.91.7,2.91,3.49c0,0,.8.42-.92,1,0,0,2.92,4.46,2.38,8l-1.59.56s3.71,8.22,1.59,15.19a2.23,2.23,0,0,1-1.77-.46l-.61-.65a13.89,13.89,0,0,1-.36-4.56l0-.56-1.19.56s-1.15-7.25-2.74-8.5c0,0-1.27.32-1.41.09a5.57,5.57,0,0,1-.83-1.16c-.23-.56-4.59-4-6-3.9l-1.19-.65s-1.63.23-2.3-.51-4.14-.24-4.14-.24l-.31.51s-1.76.56-2.25.24l-.26.6-.58-.14-1.41,1.58s-.55,0-.58-1.21c0,0-.87-.09-1,.37,0,0-3,.52-3,.14a2.93,2.93,0,0,1-.31-2.32s-4.49,3.35-5.16,2.93c0,0-2.86,0-3.61-1.07,0,0-1.54,7.85-6.31,10.27A15.7,15.7,0,0,0,347.42,303.88Z" transform="translate(-8.69 -255.87)"/><path class="cls-34" d="M353.42,309.17s2.34-2.18,7.72-1.16" transform="translate(-8.69 -255.87)"/><path class="cls-34" d="M384.06,318.42" transform="translate(-8.69 -255.87)"/><path class="cls-34" d="M378,307.5s7.15-1.06,7.9,1" transform="translate(-8.69 -255.87)"/><path class="cls-34" d="M370.7,312.29s-.3,5.43-3.61,7.29c0,0-1,2,3.92,2.74" transform="translate(-8.69 -255.87)"/><path class="cls-35" d="M357.28,314.6s-1.48-4.82,0-5.15c0,0,2.18-1.72,3.86,4.32" transform="translate(-8.69 -255.87)"/><path class="cls-35" d="M378.36,312.83s1.2-5.23,3-4.37c0,0,2.38,1.23,1.41,5.59" transform="translate(-8.69 -255.87)"/><path class="cls-36" d="M378,322.88l-13,3.8s2.94,5.94,7.63,3.89S378,322.88,378,322.88Z" transform="translate(-8.69 -255.87)"/><path class="cls-37" d="M369.74,328.36s6.28-1.56,7.39-2.5" transform="translate(-8.69 -255.87)"/><path class="cls-32" d="M376.59,333.27s-1.75,11.38-5.86,15.22c0,0-8.39-11.6-10.56-16.3l9.76,4.54Z" transform="translate(-8.69 -255.87)"/></g></svg>