<svg xmlns="http://www.w3.org/2000/svg" viewBox="0 0 807.47 418.92"><defs><style>.cls-1{fill:#929197;}.cls-1,.cls-11,.cls-13,.cls-14,.cls-28,.cls-30,.cls-34,.cls-37,.cls-39,.cls-40,.cls-41,.cls-5,.cls-6,.cls-7,.cls-8,.cls-9{stroke:#231f20;}.cls-1,.cls-10,.cls-11,.cls-12,.cls-13,.cls-14,.cls-15,.cls-16,.cls-18,.cls-19,.cls-2,.cls-20,.cls-21,.cls-22,.cls-23,.cls-25,.cls-26,.cls-27,.cls-28,.cls-29,.cls-3,.cls-30,.cls-32,.cls-34,.cls-35,.cls-36,.cls-37,.cls-39,.cls-4,.cls-40,.cls-41,.cls-42,.cls-43,.cls-44,.cls-45,.cls-46,.cls-47,.cls-5,.cls-6,.cls-7,.cls-8,.cls-9{stroke-miterlimit:10;}.cls-2{fill:#6e7271;}.cls-10,.cls-2,.cls-3{stroke:#000;}.cls-3{fill:#cc2727;}.cls-15,.cls-16,.cls-18,.cls-19,.cls-20,.cls-21,.cls-23,.cls-25,.cls-26,.cls-27,.cls-29,.cls-32,.cls-35,.cls-4,.cls-44,.cls-45,.cls-5{fill:none;}.cls-4{stroke:#2d3c4d;}.cls-4,.cls-47{stroke-width:0.25px;}.cls-6{fill:#087c18;}.cls-7{fill:#56585e;}.cls-8{fill:#b2b4ab;}.cls-9{fill:red;}.cls-10{fill:#1f3951;}.cls-11{fill:#384fa2;}.cls-12{fill:#272828;}.cls-12,.cls-22,.cls-23,.cls-25,.cls-26,.cls-27{stroke:#0e1b1b;}.cls-13,.cls-38{fill:#f4bb88;}.cls-14{fill:#fff;}.cls-15,.cls-16,.cls-18,.cls-21{stroke:#0e1b1c;}.cls-15{stroke-width:6px;}.cls-17{fill:#0e1b1c;}.cls-18,.cls-32,.cls-46{stroke-width:0.5px;}.cls-19{stroke:#e00a38;}.cls-19,.cls-20{stroke-width:8px;}.cls-20{stroke:#fc86a8;}.cls-21,.cls-25{stroke-width:2px;}.cls-22,.cls-34{fill:#231f20;}.cls-22,.cls-23,.cls-29,.cls-45{stroke-width:1.5px;}.cls-24{fill:#0e1b1b;}.cls-26{stroke-width:4px;}.cls-27{stroke-width:5px;}.cls-28{fill:#a33522;}.cls-29,.cls-32{stroke:#221a19;}.cls-30{fill:#a3341a;}.cls-31{fill:#fcf9eb;}.cls-33{fill:#ce5652;}.cls-35{stroke:#969696;stroke-width:0.75px;}.cls-36{fill:#4f3922;stroke:#0f0f0f;}.cls-37{fill:#eebb94;}.cls-39{fill:#3252a4;}.cls-40{fill:#2c2c2d;}.cls-41{fill:#fbb68c;}.cls-42{fill:#fdb686;}.cls-42,.cls-44,.cls-45,.cls-46,.cls-47{stroke:#211a19;}.cls-43{fill:#1a1210;stroke:#1a1210;}.cls-46,.cls-47{fill:#fcf9ec;}</style></defs><title>constance-et-guillaume</title><g id="Boites_de_conserve" data-name="Boites de conserve"><path class="cls-1" d="M142,359l31.75,9.61S159,379.53,164.61,395l-32.56-10.12S129,371.51,142,359Z" transform="translate(-6.63 -9.85)"/><path class="cls-2" d="M172.09,382.79s4.53-9.59,1.69-14.18c0,0-14.29,10.58-9.17,26.39C164.61,395,170.1,388.48,172.09,382.79Z" transform="translate(-6.63 -9.85)"/><path class="cls-3" d="M157,392.64c-1-3.73,1.9-13.81,1.9-13.81s3.83-8.89,7.61-12.42l-19-5.75c-6.91,6-8.17,11.88-8.17,11.88s-3.12,8.22-2,14Z" transform="translate(-6.63 -9.85)"/><path class="cls-4" d="M140,387.34s-.16-13.66,7.46-22.3" transform="translate(-6.63 -9.85)"/><path class="cls-4" d="M141.34,387.77a43.86,43.86,0,0,1,7.13-21.36" transform="translate(-6.63 -9.85)"/><path class="cls-4" d="M143.22,388.35s1.71-13.22,9.58-23" transform="translate(-6.63 -9.85)"/><path class="cls-4" d="M144.46,388.78s2.9-15.13,9.38-22.78" transform="translate(-6.63 -9.85)"/><path class="cls-4" d="M145.26,389s2.83-13.5,8.2-21" transform="translate(-6.63 -9.85)"/><path class="cls-4" d="M146.89,389.49s1.78-10,5.22-15.56" transform="translate(-6.63 -9.85)"/><path class="cls-4" d="M150.13,390.5a49.83,49.83,0,0,1,7-20.82" transform="translate(-6.63 -9.85)"/><path class="cls-4" d="M153.12,391.43s-1-9.65,7.86-23.38" transform="translate(-6.63 -9.85)"/><path class="cls-5" d="M-70.48,428.11" transform="translate(-6.63 -9.85)"/><path class="cls-6" d="M191.44,391.71l34.22,1.12s10.39,9,.72,23.83l-32.8.92s-5.7-1.94-6.31-11.61C187.27,406,186.25,396.91,191.44,391.71Z" transform="translate(-6.63 -9.85)"/><path class="cls-5" d="M201.22,405.36" transform="translate(-6.63 -9.85)"/><path class="cls-7" d="M192.36,391.71c7.54,2.85,6.11,13.55,6.11,13.55s.31,8.14-4.89,12.32l8.56-.24c3.25-3.19,3.43-10.66,3.43-10.66s.53-14-7.71-14.78Z" transform="translate(-6.63 -9.85)"/><path class="cls-7" d="M219.47,392.63c6,3.16,5.71,12.73,5.71,12.73s-.27,9.9-4.73,11.47l5.93-.17s9.67-12.83-.72-23.83Z" transform="translate(-6.63 -9.85)"/><path class="cls-8" d="M198.53,404.65s1-11.61-7.09-12.94c0,0-5.49,7.18-4.17,14.26,0,0-.1,8.55,6.31,11.61C193.58,417.58,198.48,413.3,198.53,404.65Z" transform="translate(-6.63 -9.85)"/><path class="cls-5" d="M175.24,373s83.19,38.1,164.59-38.93" transform="translate(-6.63 -9.85)"/><path class="cls-9" d="M46.12,428.16l-34.21-1.3s-10.34-9-.59-23.84l32.8-.74s5.69,2,6.25,11.64C50.37,413.92,51.34,423,46.12,428.16Z" transform="translate(-6.63 -9.85)"/><path class="cls-5" d="M36.41,414.46" transform="translate(-6.63 -9.85)"/><path class="cls-7" d="M45.2,428.15c-7.52-2.89-6-13.57-6-13.57s-.26-8.15,5-12.3l-8.56.19c-3.27,3.18-3.48,10.64-3.48,10.64s-.62,14,7.63,14.83Z" transform="translate(-6.63 -9.85)"/><path class="cls-7" d="M18.1,427.09c-6-3.19-5.64-12.75-5.64-12.75s.31-9.91,4.79-11.45l-5.93.13s-9.74,12.79.59,23.84Z" transform="translate(-6.63 -9.85)"/><path class="cls-8" d="M39.1,415.19s-1,11.6,7,13c0,0,5.53-7.15,4.25-14.24,0,0,.15-8.55-6.25-11.64C44.12,402.28,39.19,406.53,39.1,415.19Z" transform="translate(-6.63 -9.85)"/><path class="cls-1" d="M83,397.24l36.71,2.67s-12,13.29-1.06,26.78l-37.73-3S73.33,411.67,83,397.24Z" transform="translate(-6.63 -9.85)"/><path class="cls-2" d="M122.55,413.64s1.65-10-2.85-13.73c0,0-11.64,12.88-1.06,26.78C118.64,426.69,122.31,419.43,122.55,413.64Z" transform="translate(-6.63 -9.85)"/><path class="cls-10" d="M109.83,426c-2.31-3.31-2.51-13.43-2.51-13.43s1.14-9.16,4-13.26l-22-1.6c-5.34,7.08-4.76,12.87-4.76,12.87S84,419,87,424.18Z" transform="translate(-6.63 -9.85)"/><path class="cls-4" d="M90.09,424.42s-4.65-12.87.59-22.57" transform="translate(-6.63 -9.85)"/><path class="cls-4" d="M91.68,424.55s-3.43-10.73.55-21.61" transform="translate(-6.63 -9.85)"/><path class="cls-4" d="M93.86,424.72s-2.53-12.83,2.59-23.64" transform="translate(-6.63 -9.85)"/><path class="cls-4" d="M95.31,424.88S93.42,410,97.76,401.47" transform="translate(-6.63 -9.85)"/><path class="cls-4" d="M96.21,424.91s-1.42-13.33,1.8-21.49" transform="translate(-6.63 -9.85)"/><path class="cls-4" d="M98.11,425.06s-1.38-9.77.42-15.76" transform="translate(-6.63 -9.85)"/><path class="cls-4" d="M101.86,425.36a41.86,41.86,0,0,1,.54-21.07" transform="translate(-6.63 -9.85)"/><path class="cls-4" d="M105.32,425.63s-4.16-8.92.66-23.66" transform="translate(-6.63 -9.85)"/></g><g id="C_Jambe_arrière" data-name="C Jambe arrière"><path class="cls-11" d="M414.29,210s19.27,44.66,19.27,49.18-7.37,73.63-6.36,82.11H415.48s-4.23-73.07-1.19-74.48c0,0-23.32-50-26.87-54l5.07-6.78Z" transform="translate(-6.63 -9.85)"/><path class="cls-12" d="M412.45,344s-5.56,9.29-3,12.34,31.74,14.14,41.9,9.69c0,0,2.05-3.78-1.2-6.31s-19.25-14.44-19.61-15.29S417.05,353.79,412.45,344Z" transform="translate(-6.63 -9.85)"/><path class="cls-12" d="M430.37,353.85s2.83-7.41,5.34-5.25" transform="translate(-6.63 -9.85)"/><path class="cls-12" d="M434.2,356.25s3.48-6.16,5.21-4.69" transform="translate(-6.63 -9.85)"/><path class="cls-12" d="M439.41,357.75s2.42-4.41,3.33-3.9" transform="translate(-6.63 -9.85)"/><path class="cls-13" d="M424.87,340.76l1.57,5.1s-8.95,5.09-13.13-.41l1.51-4.27s8.29,1.27,10.05-.42" transform="translate(-6.63 -9.85)"/></g><g id="G_Jambe_arrière" data-name="G Jambe arrière"><path class="cls-11" d="M593.89,206.09s21.72,49,20.31,55.25-9.3,65.74-9.3,65.74,4.57,3.68-.82,8.12-21.87-1.52-21.87-1.52-.89-8.88,3.55-9.51c0,0,.89-51.25,4.27-53.85,0,0-40-73.93-37.73-75.78h0a140.69,140.69,0,0,0,41.59,11.55" transform="translate(-6.63 -9.85)"/><path class="cls-13" d="M600.22,338.06l-1.84,15.37s-11.46,3-15.46-4.16c0,0,2.11-14.52,2.64-14.45S600.22,338.06,600.22,338.06Z" transform="translate(-6.63 -9.85)"/><path class="cls-14" d="M579.76,347.21s2.21,8.12,22.24,6.85c0,0,11.66,7.6,14.45,7.86,0,0,7.6,3.42,6.59,8.3,0,0-.31,5.18-4,4.4l-42.94-6.11S576.42,346.32,579.76,347.21Z" transform="translate(-6.63 -9.85)"/><path class="cls-14" d="M598.28,360.94s3.37-7.08,5.22-5.92" transform="translate(-6.63 -9.85)"/><path class="cls-14" d="M601.66,362.42s3.17-6.55,4.33-5.85" transform="translate(-6.63 -9.85)"/><path class="cls-14" d="M606,363.44s.67-4.12,2.23-5.52" transform="translate(-6.63 -9.85)"/><line class="cls-14" x1="569.6" y1="355.27" x2="616.07" y2="362.12"/><path class="cls-14" d="M580.12,348s-1.26,6.65-3,6.06" transform="translate(-6.63 -9.85)"/></g><g id="Roues"><circle class="cls-15" cx="737.81" cy="318.12" r="66.66"/><ellipse class="cls-15" cx="332.64" cy="316.06" rx="66.99" ry="65.81"/></g><g id="Rayons"><circle class="cls-16" cx="333.15" cy="315.79" r="57.18"/><circle class="cls-17" cx="332.54" cy="318.01" r="11.52"/><line class="cls-18" x1="332.54" y1="306.5" x2="296.09" y2="272.26"/><line class="cls-18" x1="305.72" y1="265.61" x2="324.82" y2="309.48"/><line class="cls-18" x1="337.8" y1="309.48" x2="315.27" y2="261.47"/><line class="cls-18" x1="326.53" y1="258.99" x2="328.05" y2="307.41"/><line class="cls-18" x1="340.26" y1="309.48" x2="337.8" y2="258.99"/><line class="cls-18" x1="348.71" y1="261.47" x2="330.93" y2="307.41"/><line class="cls-18" x1="358.97" y1="264.77" x2="341.65" y2="310.98"/><path class="cls-17" d="M381.6,286.65" transform="translate(-6.63 -9.85)"/><line class="cls-18" x1="387.73" y1="298.68" x2="341.65" y2="318.01"/><line class="cls-18" x1="374.96" y1="276.8" x2="335.37" y2="313.16"/><line class="cls-18" x1="390.16" y1="320.08" x2="339.03" y2="320.08"/><line class="cls-18" x1="390.33" y1="308.35" x2="337.8" y2="309.48"/><line class="cls-18" x1="387.73" y1="332.91" x2="339.03" y2="310.98"/><line class="cls-18" x1="384.5" y1="340.96" x2="333.15" y2="321.95"/><polyline class="cls-18" points="378.12 351.08 340.26 316.06 377.06 279.17"/><line class="cls-18" x1="371.33" y1="358.36" x2="335.37" y2="326.9"/><line class="cls-18" x1="361.54" y1="365.42" x2="341.65" y2="318.01"/><path class="cls-16" d="M225.66,392.83s104.11-16.91,111.9-61l20.67,48" transform="translate(-6.63 -9.85)"/><line class="cls-18" x1="339.82" y1="372.97" x2="339.82" y2="321.95"/><line class="cls-18" x1="330.93" y1="372.93" x2="328.05" y2="325.29"/><line class="cls-18" x1="317.89" y1="370.9" x2="335.37" y2="329.17"/><line class="cls-18" x1="307.5" y1="366.89" x2="324.82" y2="321.95"/><line class="cls-18" x1="296.09" y1="359.34" x2="332.54" y2="326.9"/><line class="cls-18" x1="289.58" y1="352.82" x2="324.82" y2="318.01"/><line class="cls-18" x1="282.91" y1="343.12" x2="335.37" y2="321.95"/><line class="cls-18" x1="278.57" y1="332.91" x2="328.05" y2="313.16"/><line class="cls-18" x1="276.3" y1="321.95" x2="326.63" y2="321.95"/><polyline class="cls-19" points="330.93 310.98 399.63 250.25 557.77 207.68"/><line class="cls-18" x1="278.57" y1="298.68" x2="326.63" y2="320.08"/><polyline class="cls-18" points="282.44 289.38 335.37 309.48 383.06 287.88"/><line class="cls-18" x1="289.24" y1="279.16" x2="326.63" y2="318.01"/><circle class="cls-16" cx="738.19" cy="317.04" r="57.69"/><circle class="cls-17" cx="738.19" cy="316.37" r="7.61"/><line class="cls-18" x1="730.58" y1="259.86" x2="732.46" y2="311.37"/><polyline class="cls-18" points="719.41 262.5 742.74 314.72 742.74 259.86"/><polyline class="cls-18" points="781.84 279.35 743.23 317.04 764.43 265.67"/><polyline class="cls-18" points="788.11 288.14 736.27 311.37 774.19 271.98"/><polyline class="cls-18" points="793.17 334.57 741.24 311.37 795.49 310.36"/><polyline class="cls-18" points="789.77 342.88 738.19 323.98 795.49 321.19"/><polyline class="cls-18" points="766.84 367.12 745.8 316.37 783.18 353.14"/><line class="cls-18" x1="757.01" y1="371.58" x2="732.46" y2="321.19"/><line class="cls-18" x1="744.74" y1="374.36" x2="743.23" y2="317.04"/><line class="cls-18" x1="734.25" y1="374.36" x2="732.46" y2="318.12"/><polyline class="cls-18" points="722.62 372.59 742.74 321.19 793.17 299.53"/><polyline class="cls-18" points="712.83 367.12 732.47 314.72 754 261.57"/><polyline class="cls-18" points="701.97 361.94 738.19 323.98 775.83 360.74"/><line class="cls-18" x1="694.35" y1="354.52" x2="730.58" y2="316.37"/><line class="cls-18" x1="688.13" y1="345.7" x2="736.27" y2="323.72"/><line class="cls-18" x1="732.46" y1="314.72" x2="683.27" y2="334.71"/><line class="cls-18" x1="680.9" y1="323.72" x2="742.74" y2="321.19"/><line class="cls-18" x1="680.5" y1="311.37" x2="736.27" y2="311.37"/><line class="cls-18" x1="682.69" y1="301.32" x2="734.25" y2="321.53"/><line class="cls-18" x1="687.22" y1="290.01" x2="738.9" y2="314.34"/><line class="cls-18" x1="694.35" y1="281.18" x2="738.19" y2="323.98"/><line class="cls-18" x1="701.97" y1="272.15" x2="741.24" y2="311.37"/><polyline class="cls-19" points="387.3 209.92 420.61 318.13 421.72 321.3"/><line class="cls-19" x1="336.96" y1="317.72" x2="420.51" y2="328.37"/><line class="cls-20" x1="425.69" y1="328.66" x2="589.67" y2="329.02"/><line class="cls-19" x1="440.36" y1="328.11" x2="604.33" y2="328.47"/><line class="cls-21" x1="561.93" y1="345.49" x2="566.33" y2="345.49"/><line class="cls-21" x1="568.55" y1="345.55" x2="572.73" y2="345.55"/><line class="cls-21" x1="575.62" y1="345.55" x2="579.46" y2="345.55"/><line class="cls-21" x1="583.23" y1="345.55" x2="587.28" y2="345.55"/><line class="cls-21" x1="592.98" y1="345.55" x2="597.24" y2="345.49"/><line class="cls-21" x1="600.07" y1="345.55" x2="603.71" y2="345.55"/><path class="cls-16" d="M115.24,420.48s63.6-17.8,86-39.48" transform="translate(-6.63 -9.85)"/><polyline class="cls-16" points="43.81 405.37 42.8 412.69 72 407.73"/><line class="cls-16" x1="115.92" y1="403.8" x2="148.49" y2="396.95"/></g><g id="Structure_tandem" data-name="Structure tandem"><circle class="cls-22" cx="423.07" cy="328.29" r="3.16"/><circle class="cls-23" cx="423.07" cy="328.29" r="6.01"/><circle class="cls-23" cx="423.07" cy="329.17" r="9.64"/><circle class="cls-23" cx="423.07" cy="328.29" r="14.16"/><circle class="cls-23" cx="423.07" cy="328.29" r="18.2"/><path class="cls-24" d="M331.85,336.75s11,8.31,10.15,14.06c0,0-3.53,11.09-8.83,11.85a10.12,10.12,0,0,0,11.26,6.52,16.29,16.29,0,0,0,1.23-1.92c1.27-2.3,2.56-6-1.23-7.38,0,0,8.69-15.4,2-21.75S331.85,336.75,331.85,336.75Z" transform="translate(-6.63 -9.85)"/><path class="cls-25" d="M351.7,367.33l-6-.07" transform="translate(-6.63 -9.85)"/><line class="cls-25" x1="346.21" y1="357.42" x2="351.59" y2="356.67"/><line class="cls-25" x1="353.35" y1="355.87" x2="357.53" y2="355.87"/><line class="cls-25" x1="360.16" y1="355.06" x2="364.59" y2="355.06"/><line class="cls-25" x1="366.62" y1="354.24" x2="371.33" y2="353.71"/><line class="cls-25" x1="372.55" y1="353.71" x2="375.95" y2="353.71"/><line class="cls-25" x1="395.05" y1="351.08" x2="397.61" y2="351.08"/><line class="cls-25" x1="403.53" y1="350.03" x2="399.63" y2="350.03"/><line class="cls-25" x1="443.68" y1="345.49" x2="448.26" y2="345.49"/><line class="cls-25" x1="450.82" y1="345.49" x2="454.99" y2="345.49"/><line class="cls-25" x1="457.55" y1="345.49" x2="461.32" y2="345.49"/><line class="cls-25" x1="463.88" y1="345.49" x2="468.06" y2="345.49"/><line class="cls-25" x1="470.35" y1="345.49" x2="474.79" y2="345.49"/><line class="cls-25" x1="476.81" y1="345.49" x2="480.99" y2="345.49"/><line class="cls-25" x1="483.55" y1="345.49" x2="487.73" y2="345.49"/><line class="cls-25" x1="489.88" y1="345.49" x2="494.19" y2="345.49"/><line class="cls-25" x1="496.21" y1="345.49" x2="500.93" y2="345.49"/><line class="cls-25" x1="503.22" y1="345.49" x2="507.66" y2="345.49"/><line class="cls-25" x1="509.28" y1="345.49" x2="514.13" y2="345.49"/><line class="cls-25" x1="516.15" y1="345.49" x2="520.6" y2="345.49"/><line class="cls-25" x1="522.35" y1="345.49" x2="527.06" y2="345.49"/><line class="cls-25" x1="529.22" y1="345.49" x2="533.39" y2="345.49"/><line class="cls-25" x1="535.41" y1="345.49" x2="540.13" y2="345.49"/><line class="cls-25" x1="542.15" y1="345.49" x2="546.73" y2="345.49"/><line class="cls-25" x1="549.02" y1="345.49" x2="553.06" y2="345.49"/><line class="cls-25" x1="555.21" y1="345.49" x2="560.33" y2="345.49"/><polygon class="cls-24" points="402.86 353.17 420.91 360.18 423.07 355.06 415.93 351.08 417.95 346.49 413.43 344.42 411.48 349.11 404.87 347.46 402.86 353.17"/><polyline class="cls-19" points="427.38 320.2 557.82 203.76 698.88 200.11 609.37 323.2"/><line class="cls-19" x1="514.94" y1="218.85" x2="502.92" y2="178.21"/><path class="cls-24" d="M397.9,208.61s-2.42,6.06-3.91,5.12a18.17,18.17,0,0,1-5.79-2.51h-5.52s-3.37-6.79-10-6.39c0,0-8.62-4.44-7.27-9.16,0,0,11.31-.26,14.81.81Z" transform="translate(-6.63 -9.85)"/><path class="cls-24" d="M394.14,208.24s-15.9-2.56-23.31-10.11l17.65,12.13" transform="translate(-6.63 -9.85)"/><polyline class="cls-26" points="482.88 185.8 487.23 178.56 516.93 177.55"/><line class="cls-25" x1="343.04" y1="313.28" x2="345.07" y2="313.16"/><line class="cls-25" x1="346.38" y1="313.28" x2="351.13" y2="313.28"/><line class="cls-25" x1="353.35" y1="313.1" x2="358" y2="313.28"/><line class="cls-25" x1="359.72" y1="312.56" x2="364.59" y2="312.56"/><line class="cls-25" x1="366.62" y1="312.56" x2="371.33" y2="312.56"/><line class="cls-25" x1="373.06" y1="312.56" x2="377.5" y2="312.56"/><line class="cls-25" x1="379.42" y1="312.56" x2="384.07" y2="312.56"/><line class="cls-25" x1="385.89" y1="312.05" x2="390.16" y2="312.05"/><line class="cls-25" x1="447.21" y1="308.52" x2="452.9" y2="308.52"/><line class="cls-25" x1="454.99" y1="308.52" x2="459.44" y2="308.52"/><line class="cls-25" x1="461.32" y1="308.52" x2="465.97" y2="308.52"/><line class="cls-25" x1="468.06" y1="308.52" x2="472.57" y2="308.52"/><line class="cls-25" x1="474.79" y1="308.52" x2="478.9" y2="308.52"/><line class="cls-25" x1="480.99" y1="308.52" x2="485.64" y2="308.52"/><line class="cls-25" x1="487.73" y1="308.52" x2="492.04" y2="308.52"/><line class="cls-25" x1="494.19" y1="308.52" x2="498.57" y2="308.52"/><line class="cls-25" x1="500.93" y1="308.52" x2="505.44" y2="308.52"/><line class="cls-25" x1="507.66" y1="308.52" x2="511.7" y2="308.52"/><line class="cls-25" x1="514.13" y1="308.52" x2="518.37" y2="308.52"/><line class="cls-25" x1="520.6" y1="308.52" x2="524.7" y2="308.52"/><line class="cls-25" x1="527.06" y1="308.52" x2="531.3" y2="308.52"/><line class="cls-25" x1="533.39" y1="308.52" x2="537.77" y2="308.52"/><line class="cls-25" x1="540.13" y1="308.52" x2="544.44" y2="308.52"/><line class="cls-25" x1="546.32" y1="308.52" x2="551.04" y2="308.52"/><line class="cls-25" x1="553.06" y1="308.52" x2="557.77" y2="308.52"/><line class="cls-25" x1="559.86" y1="308.52" x2="564" y2="308.52"/><line class="cls-25" x1="566.33" y1="308.52" x2="570.77" y2="308.52"/><line class="cls-19" x1="605.26" y1="323.82" x2="553.99" y2="208.09"/><ellipse class="cls-22" cx="607.71" cy="327.04" rx="3.29" ry="3.22"/><ellipse class="cls-23" cx="607.71" cy="327.04" rx="6.26" ry="6.12"/><ellipse class="cls-23" cx="607.71" cy="327.93" rx="10.03" ry="9.81"/><ellipse class="cls-23" cx="607.71" cy="327.04" rx="14.73" ry="14.4"/><ellipse class="cls-23" cx="607.71" cy="327.04" rx="18.94" ry="18.52"/><line class="cls-27" x1="607.71" y1="308.52" x2="609.37" y2="287.84"/><line class="cls-27" x1="600.21" y1="286.49" x2="617.75" y2="289.46"/><line class="cls-26" x1="575.62" y1="361.12" x2="595.09" y2="364.89"/><line class="cls-19" x1="735.62" y1="314.34" x2="696.92" y2="202.41"/><path class="cls-17" d="M555.83,216.06l-3.55-13.88s-.27-2.43-7.68-2.56L538.27,194s-3.5-.41-4.58-1.08c0,0-11.45-6.87-6.4-8.89,0,0,10.3,1.48,13.4.81A51.12,51.12,0,0,0,559,194.23s2.83,14.61,4,15.73S555.83,216.06,555.83,216.06Z" transform="translate(-6.63 -9.85)"/><path class="cls-24" d="M694.8,206.42,693.19,201s-6.87.21-1.42-3.43l-1.21-7.07,3-1.22,2.22,4.45s18.59-11.52,37.18-2.63a24,24,0,0,1,5.17,9.35c1.8,7-.72,16.3-22.14,21.37l-.4-3.84s24.24-7.28,16.36-20.21c0,0-5.65-9.9-25.46,3.44,0,0-1.63,3-1,5.05Z" transform="translate(-6.63 -9.85)"/><path class="cls-24" d="M738.16,200.41c-.41-2.45,6.66-5.51,6.66-5.51s1.51-1,2.12,4.45c0,0-.81,11.07,1.61,12.91,0,0,2.43-22.61-2-20.59,0,0,.53-6.67-4.28-7.07,0,0,2.34,6.65-7.9,8.12" transform="translate(-6.63 -9.85)"/><line class="cls-27" x1="428.22" y1="310.98" x2="431.45" y2="298.68"/><line class="cls-27" x1="424.89" y1="295.56" x2="441.26" y2="299.5"/><path class="cls-12" d="M443.86,289.56" transform="translate(-6.63 -9.85)"/><path class="cls-12" d="M437.94,295.32" transform="translate(-6.63 -9.85)"/><line class="cls-25" x1="391.73" y1="312.05" x2="396.33" y2="312.05"/><line class="cls-25" x1="403.53" y1="310.98" x2="408.91" y2="310.57"/><path class="cls-25" d="M419.6,319.33" transform="translate(-6.63 -9.85)"/><line class="cls-25" x1="411.34" y1="310.09" x2="415.06" y2="309.48"/><line class="cls-25" x1="420.51" y1="308.35" x2="424.89" y2="308.35"/><line class="cls-25" x1="431.45" y1="308.35" x2="434.26" y2="308.35"/><line class="cls-25" x1="443.68" y1="308.91" x2="445.31" y2="308.91"/><line class="cls-25" x1="572.73" y1="308.52" x2="576.21" y2="308.52"/><line class="cls-25" x1="579.46" y1="308.52" x2="583.23" y2="308.52"/><line class="cls-25" x1="586.23" y1="308.52" x2="589.67" y2="308.52"/><line class="cls-25" x1="440.36" y1="345.49" x2="435.14" y2="345.49"/><line class="cls-25" x1="431.3" y1="345.49" x2="426.23" y2="345.49"/><line class="cls-25" x1="422.7" y1="345.49" x2="417.12" y2="345.49"/><line class="cls-25" x1="408.13" y1="347.28" x2="412.57" y2="346.49"/><line class="cls-25" x1="378.12" y1="353.71" x2="381.09" y2="353.71"/><line class="cls-25" x1="383.37" y1="353.37" x2="386.49" y2="353.37"/><line class="cls-25" x1="390.33" y1="352.86" x2="393.59" y2="351.76"/></g><g id="Tête_Constance" data-name="Tête Constance"><path class="cls-28" d="M449.26,70.21l10.68,7c-.26.48.89,17.55-1,20.78s.45,23.38.45,23.38a.64.64,0,0,1-1,.21c-.66-.51-5,.69-5.58.19s-3.51-9.24-3.51-9.24c.75,2.82-3.11,10.25-3.11,10.25-8.49-6.84-6.25-11-6.25-11-.15,2.19-2.32,9.42-3,9s-2.12-9.92-2.12-9.92c-.23,2.55-.58,12.27-.58,12.27s.39,1.23,0-.73-3.43-9.35-3.43-9.35a43.38,43.38,0,0,1-1.55,6.4c-.89-1.37-2.65-7.26-2.65-7.26-.18,3-4.14,8.26-4.14,8.26-1.52-2.84-2.34-9-2.34-9,.46,1.59-1.08,10.18-1.08,10.18-.87-1.73-1.83-9.06-1.83-9.06.79,1.73-2.83,6.73-2.83,6.73-2.86-3.13-2.78-8.36-2.78-8.36.63,1.6.68,13.52.68,13.52s3.21,2.54,0,.61-3.21-16.42-3.21-16.42c-1.22,4-5.76,14.19-5.76,14.19,3.08-4.16-1.37-26.45-1.37-26.45-2.35-.43-5.4-3.09-5.4-3.09s-.65-14.25,2.41-20.24l4.39-10.45S442.92,86.85,449,67.82h0l.25,2.39" transform="translate(-6.63 -9.85)"/><path class="cls-13" d="M409.55,73.66A26.4,26.4,0,0,0,423.92,86L422,91.22s7.65,3.23,6.89,3.2l1-8.18s12.34-.21,18.43-16.59c0,0,3.17-33.68-9.41-28.58,0,0-12.23-8.76-16.91-5C422.05,36,398.22,65.91,409.55,73.66Z" transform="translate(-6.63 -9.85)"/><path class="cls-29" d="M428.45,63.62a20.65,20.65,0,0,1-.53,3.3s-2.29,3.28-2.14,3.82c0,0,1.13,1.66,2.4,1.61" transform="translate(-6.63 -9.85)"/><path class="cls-29" d="M412.63,58.89a9.36,9.36,0,0,1,7.13-1" transform="translate(-6.63 -9.85)"/><path class="cls-29" d="M436.23,58.12s5.85-.81,7.4,1" transform="translate(-6.63 -9.85)"/><path class="cls-30" d="M413.28,30.3s5.44-16.94,22.9-2.7a42.22,42.22,0,0,0,8.08-1.82s5.94-.62,7.29,4.64a12.42,12.42,0,0,0,2.24,9.44s9.51,4,9.68,6.61a36,36,0,0,1-1.15,9.61c-.55,1.42-1.69,10.84-.11,14.32,0,0,3.23,10.28-3.61,12.76,0,0-5.36-14.76-4.19-17.06s-5-25.29-7.92-25c0,0-17.91-8.31-18.65-6.09s-18.8,6.8-19.2,8.68-5.52,14.24-4.76,17.06c0,0-2.41,9.38-1.89,11.83s3.52,8.94,3.52,8.94S406.9,93.7,403.87,96c0,0-1.35-13.55-3.77-17,0,0-3.31-2.36-5.41-2.61,0,0-2.72-2.84.86-11.32s5.35-8.93,1.7-13.91c0,0-5.59-7.56-1.65-11.94,0,0,3.92-6.37,10-6.53S413.28,30.3,413.28,30.3Z" transform="translate(-6.63 -9.85)"/><path class="cls-30" d="M406.14,111.94s2.9-6.19-1.37-15.71a17.83,17.83,0,0,1,3.93-12.15s2.24-6.6-.48-17c0,0-2.77-8.56,6.8-11.86,0,0,6.71-3.93,5.92-11.17,0,0,3.38-8.18,9.05-4.22,0,0,4.68,3,5.62,5.41,0,0,6.73-4.48,9.41,1.73,0,0,3.29,2.63,2.32,17.46,0,0,.82,6.06,3.47,8,0,0,4,8,1,16.69,0,0-1.51,4.91,1.58,14,0,0,1.61,4.37,1.43,6.71,0,0,3.54-.61,4.5-12.56,0,0,.22-4.23-1.29-7.16,0,0-1.95-10.06.25-17.2,0,0,1.54-10.31-.37-16.76,0,0-1.92-6.19-6.24-8.58,0,0-2.69-3-2.2-10.61,0,0,1-6.54-3.1-8.74A9.85,9.85,0,0,0,436,30.16S433.27,23,423.83,22c0,0-5.88,1.8-8.23,12,0,0,.37,1.72-8.5,4.15,0,0-8.24,4.06-8,15.33a25.76,25.76,0,0,0,2,10.06s3.42,6.59,1.55,12.48c0,0-7.6,19.4-5,23.63a4.17,4.17,0,0,0,2.94,1.71S406,107.09,406.14,111.94Z" transform="translate(-6.63 -9.85)"/><path class="cls-29" d="M436.24,64.86s2.21-9.64,5.45.17L443.27,63" transform="translate(-6.63 -9.85)"/><line class="cls-29" x1="437.08" y1="55.25" x2="435.05" y2="55.18"/><path class="cls-29" d="M420.56,64.36s-2.4-9.86-4.6-.14l-2.43-2.17" transform="translate(-6.63 -9.85)"/><line class="cls-29" x1="406.82" y1="54.77" x2="409.32" y2="54.37"/><polygon class="cls-31" points="415.55 68.19 428.79 68.86 429.72 66.65 414.91 66.35 415.55 68.19"/><path class="cls-32" d="M421.44,76.07s1.34,6.49,8,6.31a7.92,7.92,0,0,0,6.79-5.89Z" transform="translate(-6.63 -9.85)"/><path class="cls-33" d="M422.43,78.05l12.8.66s-1.24,3.12-5.69,3.59A7.57,7.57,0,0,1,422.43,78.05Z" transform="translate(-6.63 -9.85)"/></g><g id="Corps_Constance" data-name="Corps Constance"><path class="cls-11" d="M384,175.16s-17.6,11.26-.91,29c0,0,32.66,20.23,55.94,25,0,0,3.12.48.72,4.08,0,0-7.84,7.49-10.21,22.26,0,0-6.18,19.21-8.77,29.14,0,0,8,4.06,15.6-.14l9-24.58s16.58-20,18.81-26.64c.08-.24.14-.46.19-.66,1.19-5.84,2.78-13.23-3.19-17.14l-48.94-27.3S391.53,181.83,384,175.16Z" transform="translate(-6.63 -9.85)"/><path class="cls-34" d="M389,168.85l-5.49,5.41s20.58,15.1,29.82,11.46l.19-5.95S396.62,179.87,389,168.85Z" transform="translate(-6.63 -9.85)"/><path class="cls-35" d="M407,180.58s-.59,4.83-.17,5.38,6.47-.24,6.47-.24.89-3.91.16-4.94S408.28,180,407,180.58Z" transform="translate(-6.63 -9.85)"/><line class="cls-35" x1="402.29" y1="173.96" x2="406.73" y2="174.1"/><path class="cls-36" d="M388.31,167.06s9.46-16.86,15.05-43.92c0,0,2.56-27.28,16.4-33.9,0,0,11.34-1.07,15.19,6.65,0,0,5,15.89,7.29,20.07,0,0,3.45,13.84-3,20.16,0,0-16.13,9.57-27.54,43.55C411.69,179.67,390.22,177.42,388.31,167.06Z" transform="translate(-6.63 -9.85)"/><path class="cls-37" d="M441.39,133.08s32,48.11,43.82,51.87a15.4,15.4,0,0,0,9.85-.74s6.66.73,4.9,8a1.69,1.69,0,0,0,3-.22s.58-5.48-.6-8l1,8s1.83.55,1.86-1.25.09-7.6-2.48-9.88c0,0,2.73,1.08,3.5,9.12,0,0,6.94-2.06-2.7-11.74,0,0-9.71-.63-11.33.85,0,0-1.42,1-8.2-4.67s-41.89-53-41.57-56.87C442.44,117.63,444.77,126.93,441.39,133.08Z" transform="translate(-6.63 -9.85)"/><ellipse class="cls-38" cx="423.1" cy="108.51" rx="13.01" ry="7.84" transform="translate(294.74 518.15) rotate(-88.2)"/><path class="cls-13" d="M374.29,73.91c.09.57,43.62,35.08,43.62,35.08s13.77,8.92,9.91-10.09l-41.53-28-10.7-38.27s10.32-7.31,10.67-8.74c0,0,.18-3.46-10.44,3.43,0,0,5.65-15.44,4.47-16.63,0,0-5.27,3.59-6.84,14.82,0,0-.46-14.47-2-15.1,0,0-2.77,1.36-1.67,14.7,0,0-2.52-12.23-4-11.69,0,0-1.51,2.26,1.22,12.18,0,0-8-5.46-8.38-4,0,0,9.65,11.86,10.53,12.76Z" transform="translate(-6.63 -9.85)"/><path class="cls-12" d="M420,285.45s-5.56,9.3-3,12.34,31.74,14.15,41.9,9.69c0,0,2.05-3.77-1.2-6.31s-19.25-14.44-19.62-15.28S424.62,295.26,420,285.45Z" transform="translate(-6.63 -9.85)"/><path class="cls-12" d="M437.94,295.32s2.83-7.42,5.34-5.25" transform="translate(-6.63 -9.85)"/><path class="cls-12" d="M441.77,297.72s3.48-6.16,5.21-4.69" transform="translate(-6.63 -9.85)"/><path class="cls-12" d="M447,299.22s2.42-4.41,3.33-3.9" transform="translate(-6.63 -9.85)"/><path class="cls-13" d="M434,285.51v1.81s-8.95,5.1-13.13-.41l1-1.5s10.87,2.18,12.15.1" transform="translate(-6.63 -9.85)"/></g><g id="Corps_Guillaume" data-name="Corps Guillaume"><path class="cls-39" d="M552.17,151.1s-15.85,12.47-11.48,33.7c0,0,6.32,19.15,81.41,24.25,0,0-9.76,38.39-9.42,43.46,0,0-2.58,0-2.71,1.56l-.38,3.17s-.38,3.55,2.54,3.93l1.59.17,18.31,2s4.18-2.78.76-7.86c0,0,11.66-42.33,13.69-43.52,0,0,6.08-16.83-7.44-25.65,0,0-51-13.88-52.39-17.44,0,0-.34-3,.5-4.23l-35-13.52" transform="translate(-6.63 -9.85)"/><path class="cls-13" d="M629,263.3l-1.84,15.36s-11.46,3-15.45-4.15c0,0,2-13.24,2.51-13.17Z" transform="translate(-6.63 -9.85)"/><path class="cls-14" d="M608.52,272.45s2.21,8.11,22.24,6.85c0,0,11.66,7.6,14.45,7.85,0,0,7.61,3.43,6.59,8.31,0,0-.31,5.18-4,4.39l-42.94-6.1S605.18,271.55,608.52,272.45Z" transform="translate(-6.63 -9.85)"/><path class="cls-14" d="M627,286.18s3.37-7.08,5.22-5.92" transform="translate(-6.63 -9.85)"/><path class="cls-14" d="M630.42,287.66s3.17-6.56,4.33-5.85" transform="translate(-6.63 -9.85)"/><path class="cls-14" d="M634.75,288.68s.68-4.12,2.23-5.53" transform="translate(-6.63 -9.85)"/><line class="cls-14" x1="598.36" y1="280.51" x2="644.83" y2="287.36"/><path class="cls-14" d="M608.89,273.24s-1.26,6.65-3,6.06" transform="translate(-6.63 -9.85)"/><path class="cls-14" d="M586.65,168.85" transform="translate(-6.63 -9.85)"/><path class="cls-40" d="M616.71,87.26s-22.63,16.18-32.43,28.68c0,0-40.9,39.89-41.58,42.6S591,168.85,591,168.85,606.79,150.2,608.89,150s21-13.58,23.7-16.53,11.88,12.93,11.88,12.93l13.65-11.5S637,105.19,632.59,103.3s-12.66-17.72-12.66-17.72Z" transform="translate(-6.63 -9.85)"/><path class="cls-41" d="M656.11,136.56s18.26,24.09,20.54,28.65,14.45,25.1,16.73,25.61c0,0,4.31,5.07,6.59,4.81s8.62,7.36,2.28,12.93-6.08,2.62-6.84-1.35-3-6.51-5.07-5.24-5.58-6.08-5.83-7.35-9.13-13.69-11.92-14.7-28.12-33.55-28.12-33.55Z" transform="translate(-6.63 -9.85)"/><path class="cls-41" d="M705,187.52s13,1.27,10.19,11.41c0,0-2.95,5.07-4.9,4.06a5.9,5.9,0,0,1-2.7-4.82c0-1.27-3.9.46-3.9.46l-4.22-5.57L683.2,176.6s-7.52-13.1-8.47-14.5-18.62-25.54-18.62-25.54l1.44-1.21s5.66,7.13,6.84,7.8,22.31,24.28,23.33,26.09S705,187.52,705,187.52Z" transform="translate(-6.63 -9.85)"/><path class="cls-41" d="M708,194.54s3,4.82.93,7.31" transform="translate(-6.63 -9.85)"/><path class="cls-41" d="M695.75,200s3.46,5.15,3.12,10.48" transform="translate(-6.63 -9.85)"/><path class="cls-41" d="M697.86,199.1a14.33,14.33,0,0,1,3.34,10.36" transform="translate(-6.63 -9.85)"/><path class="cls-41" d="M700.14,199.1s3,1.71,3.59,7.83" transform="translate(-6.63 -9.85)"/><path class="cls-41" d="M710.05,194s2.58,2.16,2.11,8.59" transform="translate(-6.63 -9.85)"/><path class="cls-41" d="M712.22,193.42s1.82,1.43,2.55,6.16" transform="translate(-6.63 -9.85)"/></g><g id="Tête_Guillaume" data-name="Tête Guillaume"><path class="cls-42" d="M655.24,60.08c-3.31,18.26-5.82,19.23-5.82,19.23C648.89,82.52,632,90.7,632,90.7L630.33,90c-3.7-1.6-12.61-5.62-15.31-8.47-3.43-3.62-5.68-9.61-7.67-18.67l.66.55V57.85s1.9-5,2.38-5.3,3.84-1.53,6.31-10.27h0l21.65-5.76,14.9,8.18,2,15.38" transform="translate(-6.63 -9.85)"/><path class="cls-42" d="M608.05,65.89c-4.46-1.17-3.34,2.55-3.34,2.55s.77,5.78,4.42,1.43" transform="translate(-6.63 -9.85)"/><path class="cls-42" d="M654.38,64.52c3.51-1.68,3.24,2.53,3.24,2.53s-.28,5-4.37,2.51" transform="translate(-6.63 -9.85)"/><path class="cls-43" d="M608,57.85v5.57s-2.4-1.11-2.52-.55-4.88-7.67-4.22-8.65l.91,1s1-10,2.4-9.76-3.38-2.93-3.38-2.93,12.5-10.59,12.63-11l.14-.42s2,.42,2.77-2.09-.13-3.48-.92-4,1.72-1.53,2.64-.7,3.58,2.23,4.1,1.81-1.71-4.32-.79-4.73a4.71,4.71,0,0,1,2.51,0s1.59-1.82-2.64-3.91S635,20.21,635,20.21s5.56,4.46,5.82,7.25c0,0,.13,1,4.1-1.67,0,0,1.72-.28,1.19,2.51,0,0,6.2.27,7.14,1.81,0,0,2.52,1.25,2,2.23s-2-.42-2,.69,2.91.7,2.91,3.49c0,0,.8.42-.92,1,0,0,2.92,4.46,2.38,7.94L656,46s3.72,8.22,1.59,15.19a2.21,2.21,0,0,1-1.76-.46l-.62-.65a13.7,13.7,0,0,1-.35-4.56l0-.55-1.19.55S652.59,48.28,651,47c0,0-1.28.33-1.42.09a5.57,5.57,0,0,1-.83-1.16c-.22-.56-4.59-4-6-3.9l-1.19-.65s-1.63.23-2.29-.51-4.15-.24-4.15-.24l-.31.52s-1.76.55-2.25.23l-.26.6-.57-.14-1.41,1.58s-.55.05-.59-1.21c0,0-.87-.09-1,.38,0,0-3,.51-3,.14a3,3,0,0,1-.31-2.33s-4.49,3.35-5.15,2.93c0,0-2.87,0-3.62-1.07,0,0-1.54,7.85-6.31,10.27A15.7,15.7,0,0,0,608,57.85Z" transform="translate(-6.63 -9.85)"/><path class="cls-44" d="M614,63.14S616.35,61,621.73,62" transform="translate(-6.63 -9.85)"/><path class="cls-44" d="M644.66,72.39" transform="translate(-6.63 -9.85)"/><path class="cls-44" d="M638.61,61.47s7.15-1.06,7.9,1" transform="translate(-6.63 -9.85)"/><path class="cls-44" d="M631.3,66.26s-.31,5.43-3.62,7.29c0,0-1,2,3.92,2.74" transform="translate(-6.63 -9.85)"/><path class="cls-45" d="M617.87,68.57s-1.47-4.82,0-5.15c0,0,2.18-1.72,3.86,4.32" transform="translate(-6.63 -9.85)"/><path class="cls-45" d="M639,66.8s1.2-5.23,3-4.37c0,0,2.38,1.23,1.41,5.59" transform="translate(-6.63 -9.85)"/><path class="cls-46" d="M638.61,76.85l-13,3.8s2.94,5.94,7.63,3.89S638.61,76.85,638.61,76.85Z" transform="translate(-6.63 -9.85)"/><path class="cls-47" d="M630.33,82.33s6.28-1.56,7.39-2.5" transform="translate(-6.63 -9.85)"/><path class="cls-42" d="M637.18,87.24s-1.75,11.38-5.86,15.22c0,0-8.39-11.59-10.56-16.29l9.76,4.53Z" transform="translate(-6.63 -9.85)"/></g></svg>